<?xml version="1.0" encoding="utf-8"?>
<!-- Generator: Adobe Illustrator 27.1.0, SVG Export Plug-In . SVG Version: 6.00 Build 0)  -->
<svg version="1.1" id="Layer_1" xmlns="http://www.w3.org/2000/svg" xmlns:xlink="http://www.w3.org/1999/xlink" x="0px" y="0px"
	 viewBox="0 0 150 36" style="enable-background:new 0 0 150 36;" xml:space="preserve">
<style type="text/css">
	.st0{fill:#F9A31A;}
	.st1{fill:#C78215;}
	.st2{fill:#956210;}
	.st3{fill:#64410A;}
	.st4{fill:#322105;}
</style>
<g>
	<g>
		
			<image style="overflow:visible;opacity:0.25;" width="26" height="37" xlink:href="2B6E1C62.png"  transform="matrix(1 0 0 1 2.6277 0.6277)">
		</image>
		<g>
			<path class="st0" d="M16.5,2.5C12.3,7.7,8.2,12.9,4,18c4.2,5.2,8.3,10.4,12.5,15.5c0,0-0.1,0.1-0.1,0.1h8.4c0,0,0-0.1,0.1-0.1
				c-0.1-0.2-0.2-0.3-0.3-0.5c-3.9-4.9-7.8-9.7-11.7-14.5c-0.3-0.4-0.4-0.6,0-1.1c2.8-3.5,5.6-7,8.4-10.5c1.2-1.5,2.4-3.1,3.7-4.6
				c0,0,0-0.1-0.1-0.1h-8.4C16.4,2.4,16.5,2.4,16.5,2.5z"/>
		</g>
	</g>
	<g>
		
			<image style="overflow:visible;opacity:0.25;" width="26" height="37" xlink:href="2B6E1C66.png"  transform="matrix(1 0 0 1 26.6277 0.6277)">
		</image>
		<g>
			<path class="st1" d="M40.4,2.5C36.2,7.7,32,12.9,27.9,18c4.2,5.2,8.3,10.4,12.5,15.5c0,0-0.1,0.1-0.1,0.1h8.4c0,0,0-0.1,0.1-0.1
				c-0.1-0.2-0.2-0.3-0.3-0.5c-3.9-4.9-7.8-9.7-11.7-14.5c-0.3-0.4-0.4-0.6,0-1.1c2.8-3.5,5.6-7,8.4-10.5c1.2-1.5,2.4-3.1,3.7-4.6
				c0,0,0-0.1-0.1-0.1h-8.4C40.3,2.4,40.4,2.4,40.4,2.5z"/>
		</g>
	</g>
	<g>
		
			<image style="overflow:visible;opacity:0.25;" width="27" height="37" xlink:href="2B6E1C61.png"  transform="matrix(1 0 0 1 49.6277 0.6277)">
		</image>
		<g>
			<path class="st2" d="M64.3,2.5C60.1,7.7,55.9,12.9,51.8,18c4.2,5.2,8.3,10.4,12.5,15.5c0,0-0.1,0.1-0.1,0.1h8.4
				c0,0,0-0.1,0.1-0.1c-0.1-0.2-0.2-0.3-0.3-0.5c-3.9-4.9-7.8-9.7-11.7-14.5c-0.3-0.4-0.4-0.6,0-1.1c2.8-3.5,5.6-7,8.4-10.5
				c1.2-1.5,2.4-3.1,3.7-4.6c0,0,0-0.1-0.1-0.1h-8.4C64.2,2.4,64.2,2.4,64.3,2.5z"/>
		</g>
	</g>
	<g>
		
			<image style="overflow:visible;opacity:0.25;" width="27" height="37" xlink:href="2B6E1C63.png"  transform="matrix(1 0 0 1 73.6277 0.6277)">
		</image>
		<g>
			<path class="st3" d="M88.1,2.5C83.9,7.7,79.8,12.9,75.7,18c4.2,5.2,8.3,10.4,12.5,15.5c0,0-0.1,0.1-0.1,0.1h8.4
				c0,0,0-0.1,0.1-0.1c-0.1-0.2-0.2-0.3-0.3-0.5c-3.9-4.9-7.8-9.7-11.7-14.5c-0.3-0.4-0.4-0.6,0-1.1c2.8-3.5,5.6-7,8.4-10.5
				c1.2-1.5,2.4-3.1,3.7-4.6c0,0,0-0.1-0.1-0.1H88C88.1,2.4,88.1,2.4,88.1,2.5z"/>
		</g>
	</g>
	<g>
		
			<image style="overflow:visible;opacity:0.25;" width="27" height="37" xlink:href="2B6E1C60.png"  transform="matrix(1 0 0 1 97.6277 0.6277)">
		</image>
		<g>
			<path class="st4" d="M112,2.5c-4.2,5.2-8.3,10.4-12.5,15.6c4.2,5.2,8.3,10.4,12.5,15.5c0,0-0.1,0.1-0.1,0.1h8.4
				c0,0,0-0.1,0.1-0.1c-0.1-0.2-0.2-0.3-0.3-0.5c-3.9-4.9-7.8-9.7-11.7-14.5c-0.3-0.4-0.4-0.6,0-1.1c2.8-3.5,5.6-7,8.4-10.5
				c1.2-1.5,2.4-3.1,3.7-4.6c0,0,0-0.1-0.1-0.1h-8.4C112,2.4,112,2.4,112,2.5z"/>
		</g>
	</g>
	<g>
		
			<image style="overflow:visible;opacity:0.25;" width="27" height="37" xlink:href="2B6E1C6E.png"  transform="matrix(1 0 0 1 121.6277 0.6277)">
		</image>
		<g>
			<path d="M135.9,2.5c-4.2,5.2-8.3,10.4-12.5,15.6c4.2,5.2,8.3,10.4,12.5,15.5c0,0-0.1,0.1-0.1,0.1h8.4c0,0,0-0.1,0.1-0.1
				c-0.1-0.2-0.2-0.3-0.3-0.5c-3.9-4.9-7.8-9.7-11.7-14.5c-0.3-0.4-0.4-0.6,0-1.1c2.8-3.5,5.6-7,8.4-10.5c1.2-1.5,2.4-3.1,3.7-4.6
				c0,0,0-0.1-0.1-0.1h-8.4C135.8,2.4,135.9,2.4,135.9,2.5z"/>
		</g>
	</g>
</g>
</svg>
